<?xml version="1.0" encoding="UTF-8"?>
<svg id="Layer_1" data-name="Layer 1" xmlns="http://www.w3.org/2000/svg" viewBox="0 0 128 128">
  <defs>
    <style>
      .cls-1 {
        fill: #262728;
      }

      .cls-2 {
        fill: #2f3031;
      }

      .cls-3 {
        fill: #1d1e1f;
      }

      .cls-4 {
        fill: #3a3b3c;
      }

      .cls-5 {
        fill: #fff;
      }

      .cls-6 {
        fill: none;
      }

      .cls-7 {
        fill: #363738;
      }

      .cls-8 {
        fill: #2a2b2c;
      }

      .cls-9 {
        fill: #2d2e2f;
      }

      .cls-10 {
        fill: #3d3e3f;
      }

      .cls-11 {
        fill: #ffc900;
      }

      .cls-12 {
        fill: #ffd500;
      }

      .cls-13 {
        fill: #ffad00;
      }

      .cls-14 {
        fill: #ffbc00;
      }
    </style>
  </defs>
  <rect class="cls-3" width="128" height="128"/>
  <g>
    <g>
      <path class="cls-1" d="M31.84,107.43c-.29.29-.16.79.23.9,3.56,1.02,7.39.89,10.87-.41l-9.15-2.45-1.95,1.95h0Z"/>
      <path class="cls-1" d="M20.25,96.51c.11.39.61.52.9.23l4.08-4.08-5.65-1.48c-.05,1.79.16,3.59.66,5.33h.01Z"/>
      <path class="cls-4" d="M97.31,20.57c.29-.29.16-.79-.23-.9-2.84-.82-5.85-.9-8.73-.24l6.26,3.81,2.69-2.69h0Z"/>
      <path class="cls-9" d="M108.9,31.49c-.11-.39-.61-.53-.9-.23l-3.06,3.06,3.89,7.05c.97-3.21,1.01-6.66.07-9.89Z"/>
      <polygon class="cls-9" points="55.84 59.77 55.84 65.99 78.04 60.71 81.2 55.3 62.2 53.43 55.84 59.77"/>
      <path class="cls-1" d="M46.24,99.71l6.99-2.34c.26-.74.46-1.5.62-2.26l-8.11-1.45.51,6.05h-.01Z"/>
      <path class="cls-1" d="M46.76,105.91c.84-.57,1.64-1.24,2.38-1.98,1.91-1.91,3.25-4.16,4.07-6.56l-6.99,2.34.52,6.2h.01Z"/>
      <polygon class="cls-4" points="55.84 85.69 62.81 78.71 55.84 72.05 55.84 85.69"/>
      <polygon class="cls-9" points="55.84 72.05 55.84 65.99 50.76 67.2 55.84 72.05"/>
      <path class="cls-9" d="M36.18,103.09l-2.39,2.39,9.15,2.45c1.34-.5,2.62-1.16,3.83-2l-.52-6.2s-10.06,3.36-10.06,3.36Z"/>
      <polygon class="cls-1" points="78.04 60.71 81.7 59.84 85.78 55.76 81.2 55.3 78.04 60.71"/>
      <polygon class="cls-7" points="74.12 67.4 81.7 59.84 78.04 60.71 74.12 67.4"/>
      <polygon class="cls-10" points="81.2 55.3 74 41.61 62.2 53.43 81.2 55.3"/>
      <polygon class="cls-7" points="49.56 66.05 50.76 67.2 55.84 65.99 55.84 59.77 49.56 66.05"/>
      <polygon class="cls-10" points="47.69 67.94 50.76 67.2 49.56 66.05 47.69 67.94"/>
      <path class="cls-4" d="M33.82,74.66c-3.19.57-6.24,2.04-8.76,4.41l.64,2.81,8.12-7.21h0Z"/>
      <path class="cls-10" d="M25.06,79.07c-.14.12-.29.24-.41.36-2.09,2.09-3.52,4.57-4.33,7.23l5.37-4.77s-.64-2.81-.64-2.81Z"/>
      <path class="cls-9" d="M20.31,86.66c-.45,1.48-.69,3-.74,4.53l5.65,1.48,2.37-2.38-1.91-8.41-5.37,4.77h0Z"/>
      <polygon class="cls-1" points="74 41.61 88.06 43.55 81.2 55.3 74 41.61"/>
      <polygon class="cls-3" points="88.06 43.55 88.35 53.19 85.78 55.76 81.2 55.3 88.06 43.55"/>
      <g>
        <path class="cls-8" d="M81.2,55.3l4.58.45,2.57-2.58c3.85.89,7.94.41,11.54-1.35l-11.82-8.29s-6.86,11.76-6.86,11.76Z"/>
        <path class="cls-1" d="M106.56,46.08l-18.5-2.54,11.82,8.29c1.66-.81,3.24-1.89,4.62-3.27.78-.77,1.45-1.61,2.05-2.49h0Z"/>
      </g>
      <polygon class="cls-1" points="104.94 34.32 98.49 40.76 108.82 41.37 104.94 34.32"/>
      <g>
        <polygon class="cls-4" points="90.96 37.61 88.06 43.55 98.49 40.76 90.96 37.61"/>
        <path class="cls-2" d="M98.49,40.76l-10.43,2.78,18.5,2.54c1-1.46,1.76-3.05,2.26-4.7,0,0-10.34-.61-10.34-.61Z"/>
      </g>
      <g>
        <polygon class="cls-7" points="43.85 71.76 40.8 74.81 45.71 93.66 43.85 71.76"/>
        <path class="cls-10" d="M40.8,74.81c-.8-.19-1.6-.3-2.41-.36l-.2,15.94.88,2.09,6.65,1.19s-4.91-18.85-4.91-18.85Z"/>
      </g>
      <g>
        <polygon class="cls-2" points="39.06 92.48 41.34 97.91 45.71 93.66 39.06 92.48"/>
        <polygon class="cls-10" points="46.24 99.71 45.71 93.66 41.34 97.91 36.18 103.09 46.24 99.71"/>
      </g>
      <path class="cls-9" d="M45.71,93.66l8.11,1.45c.49-2.43.49-4.93-.08-7.34l-9.91-16.01,1.86,21.9h.01Z"/>
      <g>
        <polygon class="cls-1" points="50.76 67.2 47.69 67.94 43.85 71.76 55.84 72.05 50.76 67.2"/>
        <polygon class="cls-8" points="43.85 71.76 53.76 87.78 55.84 85.69 55.84 72.05 43.85 71.76"/>
      </g>
      <g>
        <polygon class="cls-1" points="55.84 72.05 62.81 78.71 74.12 67.4 55.84 65.99 55.84 72.05"/>
        <polygon class="cls-4" points="55.84 65.99 74.12 67.4 78.04 60.71 55.84 65.99"/>
      </g>
      <polygon class="cls-9" points="25.7 81.87 27.6 90.29 30.66 87.24 33.82 74.66 25.7 81.87"/>
      <g>
        <polygon class="cls-1" points="30.66 87.24 38.19 90.39 33.82 74.66 30.66 87.24"/>
        <path class="cls-9" d="M33.82,74.66l4.37,15.72.2-15.94c-1.52-.14-3.06-.05-4.57.21Z"/>
      </g>
      <g>
        <path class="cls-7" d="M83.31,30.09l-7.17-.04c-1.26,3.25-1.53,6.81-.75,10.18l12.43-10.15h-4.5Z"/>
        <polygon class="cls-9" points="87.81 30.09 75.39 40.22 74 41.61 88.06 43.55 90.96 37.61 87.81 30.09"/>
      </g>
    </g>
    <g>
      <path class="cls-10" d="M80.01,24.06c-1.76,1.76-3.04,3.81-3.89,5.99l11.68.04.56-10.65c-3.06.7-5.97,2.24-8.35,4.62Z"/>
      <polygon class="cls-9" points="88.36 19.44 87.81 30.09 94.64 23.26 88.36 19.44"/>
    </g>
  </g>
  <g>
    <g>
      <path class="cls-6" d="M69.89,46.7c.65,3.49,1.28,6.87,2.47,10.7-1.48.31-2.99.55-4.54.71-1.25.12-2.53.19-3.83.2-.12,0-.25.01-.37.01-.56,0-1.13-.01-1.69-.04h-.12c-.56-.03-1.11-.06-1.66-.11h-.01c-1.56-.12-3.09-.34-4.56-.64,1.24-3.87,1.87-7.3,2.53-10.84.21-1.16.44-2.35.69-3.58h-.01c-1.28.29-2.56.6-3.86.94,1.14-.93,2.41-1.66,3.78-2.18.17-.08.37-.14.56-.2.21-.08.44-.15.66-.21.31-.09.62-.16.94-.23.3-.08.59-.12.89-.16.19-.03.37-.05.56-.08.49-.05.99-.08,1.5-.08.05,0,.09,0,.12.01h.14c1.13.03,2.22.17,3.29.44,1.89.49,3.65,1.35,5.19,2.54-1.09-.28-2.16-.54-3.24-.77-.04-.01-.06-.01-.1-.03.25,1.22.48,2.41.69,3.58Z"/>
      <path class="cls-6" d="M78.07,86.99c-4.54.76-9.24,1.16-14.06,1.18h-.37c-4.81,0-9.51-.39-14.05-1.13,4.83,9.13,11.02,14.31,14.23,16.56.06-.04.12-.1.2-.14,3.25-2.31,9.32-7.5,14.06-16.49h0Z"/>
      <path class="cls-6" d="M82.43,75.94c-.45,1.66-.97,3.23-1.54,4.72-.09.23-.17.46-.26.69-5.29,1.13-10.88,1.72-16.62,1.75-.12,0-.25.01-.37.01-5.74,0-11.31-.57-16.6-1.66-.08-.19-.14-.36-.21-.55-.56-1.48-1.09-3.05-1.54-4.69.65-.59,1.26-1.24,1.82-1.91h.01c.62.16,1.25.31,1.87.46.2.04.39.09.57.12.57.12,1.15.24,1.74.35.26.05.51.1.76.14h.01c.69.12,1.37.24,2.07.34.62.09,1.25.17,1.87.24.1.01.19.03.29.04.64.08,1.28.12,1.91.17.32.04.65.06.97.08.64.05,1.28.08,1.91.1.84.04,1.68.05,2.51.05h.37c4.07-.01,8.05-.4,11.85-1.13,1.66-.3,3.3-.68,4.89-1.1.54.64,1.1,1.24,1.69,1.79h0Z"/>
      <path class="cls-6" d="M77.74,69.69c-1.53.36-3.1.66-4.69.91-2.93.45-5.95.69-9.05.7-.12,0-.25.01-.37.01-.75,0-1.49-.01-2.22-.04-.6-.03-1.19-.05-1.77-.09-.05,0-.1,0-.14-.01-.24-.01-.48-.03-.71-.05-.59-.05-1.17-.1-1.75-.16-.01.01-.01,0-.03,0-.69-.08-1.36-.15-2.02-.25-.04,0-.06,0-.1-.01-.01,0-.04,0-.05-.01-.79-.1-1.56-.23-2.33-.37-.77-.14-1.55-.3-2.33-.48,1.51-2.74,2.7-5.2,3.64-7.49.75.16,1.51.31,2.27.44.68.11,1.35.21,2.04.29.1.01.19.03.29.04,1.7.19,3.45.29,5.21.29.12,0,.25-.01.37-.01,1.87-.01,3.72-.14,5.53-.37,1.56-.19,3.09-.46,4.59-.81.94,2.29,2.11,4.75,3.63,7.49Z"/>
      <path class="cls-12" d="M64.06,40.95h-.06v-17.21c1.98.03,3.87.41,5.6,1.12,2.11-3.01,5.68-6.76,10.9-7.96,1.23-.29,2.46.48,2.75,1.71s-.49,2.46-1.72,2.75c-3.64.84-6.3,3.56-7.95,5.86,3.43,2.81,5.61,7.09,5.61,11.87,0,.65-.04,1.29-.12,1.91-.1.93-.3,1.81-.56,2.66.01.03.04.04.05.06.62.81,1.22,1.61,1.79,2.4-2.59-.81-5.2-1.55-7.79-2.2h0c-1.54-1.2-3.3-2.06-5.19-2.55-1.06-.26-2.16-.41-3.29-.44h-.01Z"/>
      <path class="cls-12" d="M69.52,63.01c-1.8.24-3.65.36-5.53.37v-5.08c1.3-.01,2.58-.08,3.83-.2,1.55-.16,3.06-.4,4.54-.71.48,1.53,1.05,3.11,1.75,4.8-1.5.35-3.02.62-4.59.81Z"/>
      <path class="cls-12" d="M75.85,75.25c-3.8.73-7.78,1.11-11.85,1.13v-5.08c3.1-.01,6.13-.25,9.05-.7,1.59-.25,3.16-.55,4.69-.91.09.16.17.34.28.51.8,1.42,1.71,2.75,2.73,3.95-1.59.43-3.23.8-4.89,1.1Z"/>
      <path class="cls-12" d="M86.16,78.84c-.12.43-.26.85-.4,1.26-.17.51-.35,1.02-.52,1.53-.19.5-.38.99-.56,1.48-.01.04-.02.07-.05.11-.17.45-.35.89-.52,1.31-.2.47-.41.94-.61,1.39-4.2,9.21-9.86,15.3-14.04,18.9l-5.45,9.94-.2-11.14c3.25-2.33,9.52-7.64,14.26-16.63-4.52.76-9.23,1.16-14.06,1.18v-5.06c5.75-.02,11.34-.62,16.62-1.75.09-.23.17-.46.26-.69.56-1.5,1.09-3.06,1.54-4.72,1.15,1.11,2.4,2.09,3.74,2.9Z"/>
      <path class="cls-14" d="M64,23.74v17.21h-.08s-.08-.01-.12-.01c-.51,0-1.01.03-1.5.08-.19.03-.37.05-.56.08-.3.04-.59.09-.89.16-.31.06-.62.14-.94.23-.23.06-.45.12-.66.21-.19.05-.37.12-.56.2-1.36.51-2.64,1.25-3.78,2.18h-.01c-.66.17-1.33.35-2,.54-.74.2-1.48.4-2.22.62-1.17.34-2.35.69-3.52,1.06.6-.84,1.22-1.69,1.9-2.55.01-.03.04-.04.06-.06h0c-.25-.82-.44-1.68-.55-2.55-.09-.66-.14-1.34-.14-2.03,0-4.73,2.14-8.96,5.5-11.77-1.65-2.31-4.32-5.1-8.02-5.96-1.24-.29-2-1.51-1.73-2.75.29-1.24,1.53-2.01,2.75-1.71,5.26,1.21,8.84,5,10.94,8.02,1.84-.78,3.84-1.2,5.94-1.2.08,0,.14.01.2.01Z"/>
      <path class="cls-14" d="M63.63,58.32c.12,0,.25-.01.37-.01v5.08c-.12,0-.25.01-.37.01-1.76,0-3.51-.1-5.21-.29-.1-.01-.19-.03-.29-.04-.69-.08-1.36-.17-2.04-.29-.76-.12-1.53-.28-2.27-.44.71-1.7,1.29-3.29,1.76-4.81,1.48.3,3,.51,4.56.64h.01c.55.05,1.1.09,1.66.11h.12c.56.03,1.13.04,1.69.04Z"/>
      <path class="cls-14" d="M63.63,71.31c.12,0,.25-.01.37-.01v5.08h-.37c-.84,0-1.68,0-2.51-.05-.64-.03-1.28-.05-1.91-.1-.32-.01-.65-.04-.97-.08-.64-.04-1.28-.1-1.91-.17-.1-.01-.19-.03-.29-.04-.62-.06-1.26-.15-1.87-.24-.7-.1-1.39-.21-2.07-.34h-.01c-.25-.04-.5-.09-.76-.14-.57-.11-1.16-.23-1.74-.35-.19-.04-.37-.09-.57-.12-.62-.15-1.25-.3-1.87-.46,1.08-1.24,2.02-2.61,2.86-4.1.06-.12.14-.25.2-.36.76.19,1.54.34,2.33.48.76.15,1.54.28,2.33.37.01.01.04.01.05.01.04.01.06.01.1.01.68.1,1.35.19,2.02.25.01,0,.01.01.03,0,.57.06,1.16.12,1.75.16.24.03.48.04.71.05.04.01.09.01.14.01.59.04,1.17.06,1.77.09.74.03,1.48.04,2.22.04h0Z"/>
      <path class="cls-14" d="M63.63,83.11c.12,0,.25-.01.37-.01v5.06c-.12,0-.25.01-.37.01-4.81,0-9.51-.39-14.05-1.13,4.83,9.13,11.02,14.31,14.23,16.56.06-.04-.06.04,0,0l.2,11.14h-.01l-5.82-9.94c-4.16-3.58-9.81-9.64-14.01-18.81-.05-.11-.1-.23-.15-.34-.31-.69-.61-1.4-.9-2.12-.03-.05-.04-.1-.06-.15-.41-1.02-.79-2.08-1.16-3.18-.14-.39-.26-.77-.37-1.17,1.35-.8,2.61-1.74,3.78-2.82.45,1.64.97,3.21,1.54,4.69.08.19.14.36.21.55,5.29,1.09,10.86,1.66,16.6,1.66h0Z"/>
    </g>
    <g>
      <path class="cls-5" d="M17.29,82.57c-1.09-.79-2.09-1.7-2.96-2.7.87,1,1.87,1.9,2.96,2.7Z"/>
      <path class="cls-5" d="M15.49,73.12c-.9-2.26-1.04-4.35-.41-6.41-.61,2.06-.48,4.15.41,6.41Z"/>
      <path class="cls-5" d="M18.1,61.66c-.51.57-.97,1.16-1.39,1.75.4-.59.86-1.17,1.39-1.75Z"/>
      <path class="cls-5" d="M33.66,51.41c1.51-.69,3.1-1.36,4.71-2-1.61.64-3.19,1.31-4.71,2Z"/>
      <path class="cls-5" d="M45.05,46.96c.7-.23,1.4-.45,2.1-.68h-.01c-.7.23-1.39.45-2.09.68Z"/>
    </g>
    <g>
      <path class="cls-6" d="M58.8,43.12c-.25,1.22-.48,2.41-.69,3.58-.65,3.54-1.29,6.96-2.53,10.84-.48,1.53-1.05,3.11-1.76,4.81-.94,2.29-2.13,4.75-3.64,7.49-.06.11-.14.24-.2.36-.84,1.49-1.79,2.86-2.86,4.1h-.01c-.56.68-1.17,1.33-1.82,1.91-1.16,1.09-2.42,2.02-3.78,2.82-3.29,1.96-7.05,3.04-11,3.04-.4,0-.8-.01-1.19-.04h-.03c-.4-.02-.79-.05-1.16-.1-.36-.04-.71-.09-1.06-.15-.05,0-.1,0-.15-.02-.26-.05-.53-.1-.79-.16-.33-.06-.65-.15-.98-.24-.24-.06-.47-.14-.7-.21-.39-.12-.76-.26-1.12-.41-.39-.15-.75-.31-1.11-.49-.35-.17-.69-.35-1.01-.55-.2-.11-.4-.24-.59-.36-.39-.25-.76-.52-1.11-.8-.18-.14-.35-.29-.53-.44-.34-.29-.66-.6-.96-.93-.15-.16-.3-.32-.44-.5-.28-.31-.51-.64-.75-.99-.26-.39-.51-.79-.72-1.21-.24-.46-.44-.91-.61-1.35-.89-2.26-1.02-4.35-.41-6.41.16-.51.35-1.02.6-1.53.29-.6.64-1.19,1.04-1.77.41-.59.87-1.17,1.39-1.75,3.35-3.74,8.95-7.22,15.56-10.25,1.52-.69,3.1-1.36,4.71-2,2.18-.86,4.41-1.69,6.68-2.45.7-.23,1.39-.45,2.09-.66h.01c1.17-.39,2.35-.74,3.52-1.08.74-.21,1.49-.43,2.22-.62.68-.19,1.34-.36,2-.52h.01c1.3-.35,2.59-.66,3.86-.95h.01Z"/>
      <path class="cls-13" d="M64,40.37c0,.15-.01.31-.05.49,0,.03,0,.06-.01.09-1.37,5.7-1.84,10.86-3.78,17.22h-.01c-.46,1.56-1.04,3.2-1.73,4.94-.93,2.33-2.07,4.84-3.54,7.59-.29.56-.6,1.13-.93,1.71-.36.65-.75,1.28-1.14,1.89-.11.15-.21.3-.32.46-.14.2-.28.41-.41.61h-.01c-.15.21-.31.43-.48.64-.15.2-.3.39-.46.59-.28.34-.55.68-.84,1-.17.19-.35.39-.52.59-.29.3-.57.59-.88.88-.17.17-.36.36-.55.54-.32.3-.66.59-1,.86-.15.14-.31.28-.48.4-.01.01-.04.02-.05.04-.48.39-.95.74-1.45,1.08-.12.1-.26.17-.4.26-.4.26-.8.52-1.2.76-.16.1-.34.19-.51.28-.08.04-.14.07-.21.11-.32.19-.65.36-.96.51-.16.09-.32.16-.49.24-.37.17-.74.34-1.11.49-.29.12-.57.24-.88.35-.04.01-.07.04-.13.05-.19.06-.36.12-.55.19-.56.19-1.14.36-1.71.51-.33.09-.66.17-.99.25-.24.06-.46.1-.7.15-.35.06-.7.12-1.05.19-.23.04-.46.06-.69.09-.35.05-.7.09-1.05.11-.24.02-.46.04-.69.06-.36.01-.72.02-1.09.04-.23,0-.45.01-.68.01-.15-.01-.31-.01-.46-.01-.37-.01-.74-.02-1.1-.05-.15-.01-.3-.02-.45-.05-.33-.02-.64-.05-.95-.1-.2-.02-.39-.05-.59-.07-.26-.05-.53-.09-.79-.14-.7-.14-1.39-.29-2.07-.49-.11-.02-.21-.06-.33-.1-1.44-.42-2.81-.99-4.1-1.69-.1-.05-.2-.1-.29-.16-.61-.34-1.21-.71-1.78-1.11-.16-.12-.31-.24-.48-.36-.2-.15-.41-.31-.6-.47-.08-.06-.15-.12-.23-.2l3.41-3.07c.35.28.72.55,1.11.8.19.12.39.25.59.36.33.2.66.39,1.01.55.36.17.72.34,1.11.49.36.15.74.29,1.12.41.23.07.46.15.7.21.33.09.65.17.98.24.25.06.53.11.79.16.05.01.1.01.15.02.35.06.7.11,1.06.15.39.05.78.07,1.16.1h.03c.39.02.79.04,1.19.04,3.95,0,7.71-1.08,11-3.04,1.35-.8,2.61-1.74,3.78-2.82.65-.59,1.26-1.24,1.82-1.91h.01c1.08-1.24,2.02-2.61,2.86-4.1.06-.12.14-.25.2-.36,1.51-2.74,2.7-5.2,3.64-7.49.71-1.7,1.29-3.29,1.76-4.81,1.24-3.87,1.87-7.3,2.53-10.84.21-1.16.44-2.35.69-3.58l2.06-1.87,2.59-2.34s.1.11.14.16c.06.09.1.17.15.26.04.07.08.15.1.23.04.09.06.17.09.27.03.09.04.2.05.3.01.08.03.15.02.24Z"/>
      <path class="cls-11" d="M63.45,38.91l-2.59,2.34-2.06,1.87h-.01c-1.28.29-2.56.6-3.86.94h-.01c-.66.17-1.33.35-2,.54-.74.2-1.48.4-2.22.62-1.17.34-2.35.69-3.52,1.06h-.01c-.7.23-1.39.45-2.09.68-2.26.76-4.5,1.59-6.68,2.45-1.61.64-3.19,1.31-4.71,2-6.61,3.02-12.21,6.51-15.56,10.25-.51.57-.97,1.16-1.39,1.75-.4.59-.75,1.17-1.04,1.77-.25.5-.44,1.01-.6,1.53-.61,2.06-.48,4.15.41,6.41.18.44.38.89.61,1.35.21.43.46.82.72,1.21.24.35.48.68.75.99.14.17.29.34.44.5.3.32.62.64.96.93.18.15.35.3.53.44l-3.41,3.08s-.08-.06-.13-.1c-.23-.2-.44-.4-.65-.6-.01-.01-.04-.02-.05-.04h-.01c-.18-.19-.34-.36-.51-.55-.34-.36-.65-.73-.95-1.11-.05-.05-.09-.1-.14-.15-.31-.41-.61-.84-.9-1.29-.25-.39-.48-.8-.7-1.22-.67-1.34-1.16-2.62-1.48-3.89-3.94-16.01,20.61-26.41,37.99-31.54,4.24-1.25,8.05-2.19,10.91-2.81.5-.11.97-.21,1.41-.3.2-.04.4-.05.59-.05.11,0,.21.03.31.04s.2.03.29.05c.1.03.2.06.3.1s.2.07.29.13c.05.03.1.04.14.06.06.05.12.1.19.14.12.1.25.21.37.34.03.03.05.06.08.1h0Z"/>
    </g>
    <g>
      <path class="cls-6" d="M94.39,51.44c2.51,1.15,4.89,2.38,7.05,3.66-2.15-1.28-4.53-2.5-7.05-3.66Z"/>
      <path class="cls-6" d="M110.62,62.54c-.46-.59-.99-1.16-1.55-1.73.57.56,1.09,1.14,1.55,1.73Z"/>
      <path class="cls-11" d="M111.94,81.59c-.09.07-.16.15-.25.23-.2.16-.4.33-.61.47-.15.12-.31.24-.47.36-.56.4-1.15.78-1.76,1.11-.1.06-.2.11-.29.16-1.29.7-2.66,1.26-4.1,1.69-.11.04-.23.07-.34.1-.68.2-1.36.35-2.08.49-.26.05-.51.09-.79.14-.19.02-.39.05-.57.07-.31.05-.64.07-.95.1-.15.02-.3.04-.46.05-.36.02-.73.04-1.09.05-.16,0-.31,0-.47.01-.23,0-.44-.01-.66-.01-.36-.01-.73-.02-1.09-.04-.23-.02-.46-.04-.69-.06-.35-.02-.7-.06-1.05-.11-.24-.02-.46-.05-.7-.09-.35-.06-.69-.12-1.04-.19-.24-.05-.47-.09-.7-.15-.34-.07-.66-.16-1-.25-.56-.15-1.14-.33-1.7-.51-.19-.06-.38-.12-.56-.19-.04-.01-.07-.04-.12-.05-.29-.11-.57-.23-.87-.35-.36-.15-.74-.31-1.1-.49-.16-.07-.33-.15-.49-.24-.4-.19-.79-.4-1.19-.62-.04-.02-.07-.04-.11-.06-.12-.06-.26-.14-.4-.21-.4-.24-.8-.5-1.19-.76-.14-.09-.28-.16-.41-.26-.51-.35-1.01-.71-1.5-1.11-.07-.06-.16-.12-.24-.2-.07-.06-.16-.12-.24-.2-.34-.28-.66-.56-.99-.86-.19-.17-.37-.36-.56-.54-.29-.29-.57-.57-.86-.88-.17-.2-.35-.4-.54-.59-.28-.32-.56-.66-.84-1-.15-.2-.31-.39-.46-.59-.19-.25-.37-.5-.55-.76-.12-.16-.24-.32-.35-.49-.1-.16-.21-.31-.31-.46-.4-.61-.79-1.24-1.15-1.89-.35-.61-.68-1.22-.99-1.81-1.46-2.75-2.6-5.26-3.52-7.59-.68-1.73-1.24-3.35-1.7-4.9-1.93-6.34-2.39-11.49-3.76-17.16,0-.03,0-.06-.01-.09-.03-.17-.05-.34-.05-.49,0-.09.01-.16.03-.24,0-.1.03-.2.05-.3s.06-.19.1-.27c.03-.07.06-.15.1-.23.04-.09.09-.17.14-.26.05-.06.11-.13.16-.19l2.78,2.5,1.85,1.74h0c.25,1.22.48,2.41.69,3.58.65,3.49,1.28,6.87,2.47,10.7.48,1.53,1.05,3.11,1.75,4.8.94,2.29,2.11,4.75,3.63,7.49.09.16.17.34.28.51.8,1.42,1.71,2.75,2.72,3.95.54.64,1.1,1.24,1.69,1.79,1.15,1.11,2.4,2.09,3.74,2.9,3.37,2.1,7.25,3.24,11.32,3.24.4,0,.81-.01,1.2-.04.4-.02.79-.05,1.18-.1h.01c.34-.04.68-.09,1-.15.24-.02.47-.07.71-.12.44-.09.86-.19,1.27-.31.24-.06.47-.14.71-.21.94-.3,1.82-.68,2.65-1.11.41-.21.81-.45,1.19-.71.39-.24.76-.51,1.11-.8l3.41,3.07h0Z"/>
      <path class="cls-13" d="M117.41,72.66c-.31,1.26-.79,2.55-1.48,3.89-.21.43-.45.84-.7,1.22-.28.45-.57.88-.9,1.29-.04.05-.09.1-.12.15-.3.39-.61.75-.95,1.11-.17.19-.35.38-.54.55-.23.21-.46.42-.7.64-.02.02-.06.05-.09.07l-3.41-3.07c.17-.14.35-.29.51-.44.17-.14.34-.29.5-.45.24-.23.46-.46.68-.71.23-.25.42-.5.62-.76,0-.01.01-.01.01-.01.19-.26.38-.54.55-.81s.34-.56.49-.85c1.71-3.36,1.85-6.31.42-9.29-.42-.9-1-1.77-1.69-2.65-.46-.59-.99-1.16-1.55-1.73-1.14-1.15-2.48-2.26-3.98-3.34-.75-.54-1.54-1.06-2.36-1.59,0,0-.01,0-.02-.01-.41-.26-.84-.52-1.27-.77-2.16-1.29-4.54-2.51-7.05-3.66-2.11-.96-4.32-1.87-6.61-2.75-.9-.34-1.81-.68-2.73-.99-1.55-.55-3.12-1.08-4.71-1.56-2.59-.81-5.2-1.55-7.79-2.2h0c-1.09-.29-2.26-.57-3.34-.81l-1.85-1.74-2.78-2.5s.04-.05.06-.07c.11-.13.24-.24.37-.34.06-.04.11-.09.17-.14.05-.03.09-.04.14-.06.1-.05.2-.09.3-.13.09-.04.19-.07.29-.1.1-.03.2-.04.3-.05s.2-.04.3-.04c.2,0,.4.01.6.05.44.09.91.19,1.41.3,2.78.61,6.45,1.51,10.54,2.7,17.39,5.09,42.31,15.52,38.35,31.65h-.01Z"/>
    </g>
  </g>
</svg>